<?xml version="1.0" standalone="no"?><!DOCTYPE svg PUBLIC "-//W3C//DTD SVG 1.1//EN" "http://www.w3.org/Graphics/SVG/1.1/DTD/svg11.dtd"><svg t="1611565435545" class="icon" viewBox="0 0 2800 1024" version="1.1" xmlns="http://www.w3.org/2000/svg" p-id="20661" xmlns:xlink="http://www.w3.org/1999/xlink" width="546.875" height="200"><defs><style type="text/css"></style></defs><path d="M855.476706 653.568a368.880941 368.880941 0 0 1 25.675294 135.589647c0 28.461176-3.192471 56.124235-9.291294 82.718118a370.477176 370.477176 0 0 1-82.688 9.261176c-47.856941 0-93.620706-9.020235-135.604706-25.584941a371.139765 371.139765 0 0 0 29.906824-172.062118c58.398118 3.779765 117.458824-6.204235 172.001882-29.921882z m-689.573647 0a371.501176 371.501176 0 0 0 172.062117 29.936941c-3.794824 58.383059 6.189176 117.458824 29.967059 171.971765a368.956235 368.956235 0 0 1-135.634823 25.675294c-28.461176 0-56.124235-3.207529-82.718118-9.261176a372.073412 372.073412 0 0 1-9.276235-82.718118c0-47.856941 9.050353-93.665882 25.6-135.589647z m66.394353-513.264941c47.917176 0.030118 93.650824 9.110588 135.619764 25.690353a370.522353 370.522353 0 0 0-29.967058 171.971764 371.139765 371.139765 0 0 0-172.047059 29.921883 368.805647 368.805647 0 0 1-25.6-135.589647c0-28.446118 3.222588-56.094118 9.276235-82.718118a371.591529 371.591529 0 0 1 82.718118-9.276235z m556.875294 0c28.461176 0 56.109176 3.222588 82.733176 9.261176 6.023529 26.654118 9.246118 54.287059 9.246118 82.748236a368.941176 368.941176 0 0 1-25.675294 135.589647 370.853647 370.853647 0 0 0-171.986824-29.921883A371.109647 371.109647 0 0 0 653.552941 165.918118a368.896 368.896 0 0 1 135.604706-25.6z" fill="#93D51A" p-id="20662"></path><path d="M510.689882 755.034353a370.627765 370.627765 0 0 0 142.863059 100.532706 369.152 369.152 0 0 1-77.778823 113.980235 367.510588 367.510588 0 0 1-65.054118 51.907765 367.510588 367.510588 0 0 1-65.054118-51.907765 368.218353 368.218353 0 0 1-77.703529-114.010353 371.425882 371.425882 0 0 0 142.727529-100.502588z m82.733177-161.596235c-5.12 22.588235-12.378353 44.408471-21.473883 65.204706a369.197176 369.197176 0 0 1-61.244235 96.37647 367.977412 367.977412 0 0 1-61.229176-96.37647 363.670588 363.670588 0 0 1-21.458824-65.174589c14.787765 3.343059 29.936941 5.857882 45.327059 7.378824 12.257882 1.264941 24.771765 1.897412 37.391059 1.897412a373.549176 373.549176 0 0 0 82.672941-9.306353zM165.903059 367.887059a370.401882 370.401882 0 0 0 100.502588 142.848 370.025412 370.025412 0 0 0-100.502588 142.832941 369.438118 369.438118 0 0 1-113.995294-77.793882A367.420235 367.420235 0 0 1 0 510.735059a368.143059 368.143059 0 0 1 51.907765-65.054118 369.648941 369.648941 0 0 1 113.995294-77.793882z m689.573647 0a368.579765 368.579765 0 0 1 114.070588 77.778823 368.835765 368.835765 0 0 1 51.907765 65.069177 368.097882 368.097882 0 0 1-51.907765 65.054117 367.585882 367.585882 0 0 1-114.010353 77.718589 371.606588 371.606588 0 0 0-100.547765-142.757647 370.296471 370.296471 0 0 0 100.48753-142.863059zM427.971765 427.986824c-3.312941 14.817882-5.842824 29.967059-7.348706 45.342117a373.850353 373.850353 0 0 0-1.897412 37.406118c0 12.649412 0.632471 25.072941 1.897412 37.391059 1.475765 15.420235 3.975529 30.569412 7.348706 45.357176a363.023059 363.023059 0 0 1-65.189647-21.519059 367.480471 367.480471 0 0 1-96.376471-61.229176 368.353882 368.353882 0 0 1 96.376471-61.259294 367.36 367.36 0 0 1 65.204706-21.488941z m165.451294 0.060235a356.592941 356.592941 0 0 1 65.204706 21.473882 368.368941 368.368941 0 0 1 96.361411 61.214118 367.706353 367.706353 0 0 1-96.346352 61.199059 364.453647 364.453647 0 0 1-65.219765 21.488941c3.403294-14.757647 5.903059-29.906824 7.424-45.296941 1.204706-12.257882 1.882353-24.741647 1.882353-37.391059 0-12.634353-0.662588-25.103059-1.882353-37.391059a358.701176 358.701176 0 0 0-7.424-45.296941z m-82.733177-161.596235a368.308706 368.308706 0 0 1 61.244236 96.37647 364.408471 364.408471 0 0 1 21.473882 65.204706 355.117176 355.117176 0 0 0-45.296941-7.393882 357.044706 357.044706 0 0 0-37.391059-1.897412c-12.619294 0-25.133176 0.662588-37.391059 1.897412a369.769412 369.769412 0 0 0-45.357176 7.348706c5.150118-22.588235 12.408471-44.378353 21.534117-65.204706a367.224471 367.224471 0 0 1 61.184-96.331294zM510.735059 0a368.880941 368.880941 0 0 1 65.054117 51.907765 369.754353 369.754353 0 0 1 77.778824 113.995294 371.004235 371.004235 0 0 0-142.863059 100.532706 371.154824 371.154824 0 0 0-142.757647-100.502589 368.293647 368.293647 0 0 1 77.733647-114.025411A368.880941 368.880941 0 0 1 510.735059 0z" fill="#058EF2" p-id="20663"></path><path d="M1778.401882 847.691294a67.418353 67.418353 0 0 1-16.353882 6.204235 720.775529 720.775529 0 0 0-111.751529 34.846118v-31.156706a752.745412 752.745412 0 0 1 78.757647-25.46447 547.463529 547.463529 0 0 0-11.821177-3.162353 534.648471 534.648471 0 0 0-12.574117-3.132236 14.426353 14.426353 0 0 1-10.194824-18.191058c2.770824-8.478118 5.195294-17.121882 7.183059-25.871059a313.223529 313.223529 0 0 0 5.285647-28.506353h-56.335059v-19.169883h58.428235c0.647529-8.508235 0.948706-16.986353 0.90353-25.389176h28.491294c0 8.432941-0.286118 16.880941-0.843294 25.389176h135.137882v19.169883h-49.031529l-12.288 52.133647a65.551059 65.551059 0 0 1-9.923765 21.714823c24.199529 9.155765 47.917176 19.576471 71.047529 31.186824v30.58447a722.522353 722.522353 0 0 0-94.117647-41.216v0.030118z m-49.001411-59.392c-0.963765 4.111059-1.987765 8.207059-3.117177 12.257882a2.484706 2.484706 0 0 0 1.731765 3.011765c14.908235 3.915294 29.635765 8.297412 44.167529 13.116235a37.360941 37.360941 0 0 0 11.218824-19.395764l10.36047-44.107294h-58.112a352.105412 352.105412 0 0 1-6.249411 35.117176z m404.314353 99.885177a242.447059 242.447059 0 0 1-6.02353-53.579295v-100.517647h19.365647v100.517647c0 18.070588 2.183529 36.050824 6.520471 53.579295h-19.862588z m-91.858824 0c4.336941-17.528471 6.520471-35.523765 6.520471-53.579295v-100.517647h19.365647v100.517647a244.344471 244.344471 0 0 1-6.02353 53.579295h-19.862588z m-603.723294 0H1290.390588a14.260706 14.260706 0 0 1-14.260706-14.426353V796.461176c-10.586353 4.020706-21.428706 7.288471-32.466823 9.773177v-19.576471a222.870588 222.870588 0 0 0 104.327529-58.940235h-45.477647v-16.775529h124.03953v16.775529h-44.965647a223.081412 223.081412 0 0 0 104.327529 58.940235v19.576471a240.218353 240.218353 0 0 1-33.008941-9.984v77.522823a14.245647 14.245647 0 0 1-14.275765 14.426353l-0.496941-0.015058z m-130.43953-22.272c0 1.716706 1.400471 3.102118 3.117177 3.117176h107.52a3.117176 3.117176 0 0 0 3.102118-3.117176v-8.734118h-113.769412l0.030117 8.734118z m0-25.6h113.709177v-14.667295h-113.739294l0.030117 14.667295z m0-40.944942v9.472h113.709177v-9.472a3.087059 3.087059 0 0 0-3.102118-3.087058h-107.52a3.102118 3.102118 0 0 0-3.117176 3.19247l0.030117-0.105412z m8.026353-22.272h98.273883a244.103529 244.103529 0 0 1-49.136941-39.363764 243.230118 243.230118 0 0 1-49.182118 39.424l0.045176-0.060236z m1327.435295 111.013647l-3.20753-2.755764a397.312 397.312 0 0 1-28.928-27.828706c-4.532706 4.924235-9.185882 9.728-13.94447 14.426353-5.722353 5.601882-11.535059 10.917647-17.498353 16.158117h-49.001412a374.693647 374.693647 0 0 0 60.340706-53.639529 397.643294 397.643294 0 0 1-42.164706-64.180706h28.431059a370.447059 370.447059 0 0 0 30.117647 44.830118 371.576471 371.576471 0 0 0 39.634823-61.921883h-102.294588v-19.154823h51.877647v-34.228706h-51.877647v-19.169882h51.877647v-36.291765h31.503059v36.291765h51.907765v19.169882h-51.907765v34.228706h38.640941c7.529412 0.481882 13.357176 6.776471 13.266824 14.305882v1.024a24.395294 24.395294 0 0 1-2.18353 9.878589l-0.075294 0.150588a403.892706 403.892706 0 0 1-50.296471 79.22447 376.470588 376.470588 0 0 0 55.853177 49.468236l-40.071529 0.015058z m-173.492706 0c6.716235-18.913882 10.134588-38.821647 10.119529-58.895058v-36.020706l-30.915765 11.248941v-20.344471l30.915765-11.264V699.783529h-31.367529v-19.169882h31.322353v-36.291765h30.418823v36.291765h25.6v19.169882h-25.6v62.042353l23.491765-8.553411v20.34447l-23.491765 8.553412v47.088941c0 19.937882-2.891294 39.770353-8.553412 58.895059l-31.939764-0.045177z m-241.995294 0v-94.253176l-66.394353 24.094118v-20.344471l66.394353-24.094118v-128.813176h31.488v117.338353l25.6-9.306353v20.329412l-25.6 9.306353v105.728l-31.488 0.015058z m-145.633883 0V708.638118h-38.791529v-19.124706h38.791529v-25.494588h-38.791529v-19.365648h57.645176c17.317647 0 34.56-2.002824 51.395765-6.023529v19.862588c-12.754824 2.785882-25.735529 4.517647-38.776471 5.180236v25.825882h38.776471v19.124706h-38.776471v179.471059l-31.472941 0.015058z m110.98353-126.494117l-28.611765-45.040941h21.790118l29.455058 45.040941h-22.633411z m-743.710118-3.659294l-23.808-23.838118h30.373647l23.868235 23.838118h-30.433882z m-197.074824 0l23.823059-23.838118h30.403765l-23.823059 23.838118h-30.403765z m194.063059-30.117647v-24.832a3.117176 3.117176 0 0 0-3.132235-3.087059H1285.872941a3.102118 3.102118 0 0 0-3.117176 3.087059v24.832h-32.527059v-32.677647a14.230588 14.230588 0 0 1 14.787765-14.426353h81.588705l0.331295-35.945412h32.557176v9.59247h62.343529v16.805648H1379.237647v9.547294h84.811294a14.275765 14.275765 0 0 1 14.817883 14.426353v32.677647h-32.572236z m746.721883-19.07953l-28.611765-45.056h21.790118l29.455058 45.056h-22.633411z m-352.873412 0v-24.847059a3.117176 3.117176 0 0 0-3.102118-3.102117h-150.799059a3.117176 3.117176 0 0 0-3.132235 3.102117v24.847059h-32.587294V675.990588a14.230588 14.230588 0 0 1 14.817882-14.426353h79.962353V644.818824h32.572236v16.745411h79.977411a14.215529 14.215529 0 0 1 14.787765 14.426353v32.692706l-32.496941 0.075294z m106.797176-194.123294h64.768a82.823529 82.823529 0 0 0 146.597647-52.555294v-0.918588c-3.011765 2.936471-6.128941 5.752471-9.381647 8.402823a109.507765 109.507765 0 0 1-74.61647 27.723294 131.162353 131.162353 0 0 1-81.362824-28.099764l-2.439529-1.987765-2.409412-2.048-2.394353-2.093176-4.517647-4.336942c-1.505882-1.505882-2.921412-3.011765-4.306824-4.517647-0.707765-0.798118-1.415529-1.505882-2.078117-2.379294-0.662588-0.873412-1.415529-1.505882-2.063059-2.409412l-1.972706-2.469647a134.174118 134.174118 0 0 1-10.661647-15.766588 35.373176 35.373176 0 0 1-1.505882-2.770823c-0.451765-0.933647-0.993882-1.867294-1.505883-2.816l-1.430588-2.846118a68.638118 68.638118 0 0 1-1.340235-2.891294c-0.406588-0.948706-0.888471-1.972706-1.295059-3.011765a103.740235 103.740235 0 0 1-1.219765-3.011765c-0.406588-1.054118-0.798118-2.032941-1.14447-3.011764s-0.722824-2.017882-1.054118-3.011765c-0.361412-1.024-0.692706-2.063059-1.008941-3.011765a69.210353 69.210353 0 0 1-0.933647-3.102117l-0.858353-3.117177c-0.301176-1.054118-0.542118-2.108235-0.752941-3.177412-0.210824-1.069176-0.496941-2.123294-0.692706-3.177411a54.859294 54.859294 0 0 1-0.617412-3.20753 65.686588 65.686588 0 0 1-0.527059-3.237647c-0.135529-1.054118-0.346353-2.198588-0.496941-3.297882-0.150588-1.099294-0.256-2.198588-0.361412-3.282824-0.105412-1.069176-0.225882-2.213647-0.286117-3.312941-0.060235-1.099294-0.180706-2.198588-0.240942-3.343059-0.060235-1.144471-0.075294-2.258824-0.105411-3.373176-0.030118-1.114353 0-2.273882 0-3.433412v-3.373176c0-1.144471 0-2.258824 0.105411-3.403295 0.105412-1.144471 0.150588-2.213647 0.240942-3.343058l0.286117-3.312942 0.361412-3.328c0.120471-1.114353 0.316235-2.183529 0.496941-3.282823 0.120471-1.054118 0.331294-2.153412 0.527059-3.222588 0.195765-1.069176 0.376471-2.153412 0.617412-3.237647 0.240941-1.084235 0.436706-2.138353 0.692706-3.20753 0.256-1.069176 0.527059-2.093176 0.752941-3.147294l0.858353-3.117176c0.286118-1.008941 0.602353-2.078118 0.933647-3.117177 0.331294-1.039059 0.647529-2.048 1.008941-3.087059 0.361412-1.039059 0.662588-2.032941 1.054118-3.011764 0.391529-0.978824 0.737882-2.017882 1.14447-3.011765 0.406588-0.978824 0.813176-1.957647 1.219765-3.011765a131.749647 131.749647 0 0 1 121.419294-80.474353c31.472941-0.376471 61.741176 11.971765 83.968 34.243765v-27.753412h56.109177v221.57553a138.962824 138.962824 0 0 1-267.489883 52.841411l-0.090353-0.316235z m50.462118-149.157647a76.920471 76.920471 0 1 0 153.871059 0.030118 76.920471 76.920471 0 0 0-153.886118-0.045177l0.015059 0.015059z m-46.863059-45.281882l1.144471-3.011765a42.917647 42.917647 0 0 0-1.15953 2.996706l0.015059 0.015059z m-812.242823 1.581176a175.510588 175.510588 0 0 1 335.22447-72.719059H1404.988235a116.675765 116.675765 0 1 0 11.429647 128.165647h-83.169882v-58.23247H1489.167059a175.465412 175.465412 0 1 1-350.870588 2.785882z m1390.366117 43.670588a131.794824 131.794824 0 1 1 263.589647-0.030117 131.794824 131.794824 0 0 1-263.589647 0.030117z m54.859294 0a76.920471 76.920471 0 1 0 153.840942 0.030118 76.920471 76.920471 0 0 0-153.840942-0.030118z m-342.678588 0a131.794824 131.794824 0 1 1 260.924235 26.368h-201.517176a77.040941 77.040941 0 0 0 135.529412 17.588706h61.033411a131.794824 131.794824 0 0 1-256-43.971764l0.030118 0.015058z m59.407059-26.322823h144.730353a77.025882 77.025882 0 0 0-144.730353 0z m-646.761412 26.322823a131.794824 131.794824 0 1 1 260.939294 26.368h-201.517176a77.056 77.056 0 0 0 135.619765 17.588706h61.033411a131.809882 131.809882 0 0 1-256-43.971764l-0.075294 0.015058z m59.407059-26.322823h144.745412a77.040941 77.040941 0 0 0-144.745412 0z m-192.978824 152.907294V238.832941h60.762353v21.564235a63.066353 63.066353 0 0 1 51.064471-30.373647h3.689412c1.807059 0 3.584 0.105412 5.345882 0.271059v59.572706a56.832 56.832 0 0 0-5.135059-0.361412h-0.165647a53.504 53.504 0 0 0-51.395764 34.800942 53.368471 53.368471 0 0 0-3.358118 18.703058v149.082353l-60.80753-0.060235z" fill="#058EF2" p-id="20664"></path></svg>