<?xml version="1.0" standalone="no"?><!DOCTYPE svg PUBLIC "-//W3C//DTD SVG 1.1//EN" "http://www.w3.org/Graphics/SVG/1.1/DTD/svg11.dtd"><svg t="1611565476536" class="icon" viewBox="0 0 1024 1024" version="1.1" xmlns="http://www.w3.org/2000/svg" p-id="20926" xmlns:xlink="http://www.w3.org/1999/xlink" width="200" height="200"><defs><style type="text/css"></style></defs><path d="M341.228308 334.979282a360.290462 360.290462 0 0 0-167.043282 29.03959 361.629538 361.629538 0 0 1-15.858872-211.915487 360.920615 360.920615 0 0 1 211.968 15.937641c-22.843077 52.539077-32.820513 109.778051-29.065846 166.938256zM865.673846 859.424821a361.550769 361.550769 0 0 1-211.941743-15.753847 360.290462 360.290462 0 0 0 29.039589-167.043282 360.132923 360.132923 0 0 0 166.938257-29.039589 361.183179 361.183179 0 0 1 15.937641 211.941743l0.026256-0.105025zM370.32041 843.487179a360.920615 360.920615 0 0 1-211.968 15.937642 361.577026 361.577026 0 0 1 15.753846-211.941744 360.500513 360.500513 0 0 0 167.043282 29.03959 359.712821 359.712821 0 0 0 29.170872 166.990769zM849.736205 364.045128a359.922872 359.922872 0 0 0-166.938256-29.03959 360.264205 360.264205 0 0 0-29.03959-167.043282 357.979897 357.979897 0 0 1 131.623385-24.86482c27.044103 0 53.956923 3.019487 80.318359 8.979692 5.960205 26.361436 8.953436 53.300513 8.953435 80.344616a357.481026 357.481026 0 0 1-24.917333 131.623384z" fill="#93D51A" p-id="20927"></path><path d="M174.185026 647.798154A361.366974 361.366974 0 0 1 13.128205 509.111795a361.235692 361.235692 0 0 1 161.056821-138.633846 359.424 359.424 0 0 0 97.56882 138.633846 359.476513 359.476513 0 0 0-97.56882 138.686359zM511.973744 747.441231a358.793846 358.793846 0 0 1-80.292103-156.855795 360.448 360.448 0 0 0 80.318359 9.005949 362.653538 362.653538 0 0 0 80.265846-9.032206 353.411282 353.411282 0 0 1-20.873846 63.304206 358.373744 358.373744 0 0 1-59.418256 93.577846zM575.172923 957.597538a359.187692 359.187692 0 0 1-63.146667 50.412308 360.763077 360.763077 0 0 1-138.607589-161.109333A360.474256 360.474256 0 0 0 512 749.357949a359.529026 359.529026 0 0 0 138.686359 97.595077 359.135179 359.135179 0 0 1-75.513436 110.670769zM511.973744 268.865641a360.395487 360.395487 0 0 0-138.581334-97.56882A360.763077 360.763077 0 0 1 512 10.24a361.235692 361.235692 0 0 1 138.660103 161.056821 360.054154 360.054154 0 0 0-138.686359 97.595076zM430.500103 589.45641a353.096205 353.096205 0 0 1-63.277949-21.005128 357.297231 357.297231 0 0 1-93.55159-59.444513 360.185436 360.185436 0 0 1 156.855795-80.344615 367.589744 367.589744 0 0 0-8.979692 80.344615c0.026256 27.017846 3.045744 53.956923 8.979692 80.344616l-0.026256 0.105025zM592.265846 427.66441a351.442051 351.442051 0 0 0-43.979487-7.194256 366.985846 366.985846 0 0 0-116.630974 7.115487 360.264205 360.264205 0 0 1 80.318359-156.829538c39.384615 44.819692 66.953846 98.724103 80.292102 156.882051v0.026256zM750.303179 509.111795a359.529026 359.529026 0 0 1-156.855794 80.265846 361.629538 361.629538 0 0 0 0-160.584205c21.714051 4.909949 42.929231 11.894154 63.304205 20.873846 34.080821 14.834872 65.641026 34.868513 93.551589 59.418256zM960.485744 572.258462a357.297231 357.297231 0 0 1-110.697026 75.460923 360.868103 360.868103 0 0 0-97.595077-138.60759 359.292718 359.292718 0 0 0 97.542564-138.633846A360.920615 360.920615 0 0 1 1010.871795 509.111795a358.111179 358.111179 0 0 1-50.386051 63.146667z" fill="#FFFFFF" p-id="20928"></path></svg>