<?xml version="1.0" standalone="no"?><!DOCTYPE svg PUBLIC "-//W3C//DTD SVG 1.1//EN" "http://www.w3.org/Graphics/SVG/1.1/DTD/svg11.dtd"><svg t="1611569910711" class="icon" viewBox="0 0 3530 1024" version="1.1" xmlns="http://www.w3.org/2000/svg" p-id="21057" xmlns:xlink="http://www.w3.org/1999/xlink" width="689.453125" height="200"><defs><style type="text/css"></style></defs><path d="M336.734316 333.285053a369.771789 369.771789 0 0 0-171.439158 29.803789 371.146105 371.146105 0 0 1-16.276211-217.49221 370.418526 370.418526 0 0 1 217.546106 16.357052c-23.444211 53.894737-33.684211 112.64-29.830737 171.331369zM874.981053 871.531789a371.065263 371.065263 0 0 1-217.519158-16.168421 369.771789 369.771789 0 0 0 29.803789-171.439157 369.610105 369.610105 0 0 0 171.331369-29.80379 370.688 370.688 0 0 1 16.357052 217.519158l0.026948-0.10779zM366.592 855.174737a370.418526 370.418526 0 0 1-217.546105 16.357052 371.092211 371.092211 0 0 1 16.168421-217.519157 369.987368 369.987368 0 0 0 171.439158 29.803789 369.178947 369.178947 0 0 0 29.938526 171.358316zM858.624 363.115789a369.394526 369.394526 0 0 0-171.331368-29.803789 369.744842 369.744842 0 0 0-29.80379-171.439158 367.400421 367.400421 0 0 1 135.087158-25.519158c27.755789 0 55.376842 3.072 82.432 9.216 6.117053 27.055158 9.189053 54.703158 9.189053 82.432a366.888421 366.888421 0 0 1-25.573053 135.114105z" fill="#93D51A" p-id="21058"></path><path d="M165.295158 654.336A370.876632 370.876632 0 0 1 0 512a370.741895 370.741895 0 0 1 165.295158-142.309053A368.882526 368.882526 0 0 0 265.431579 512a368.936421 368.936421 0 0 0-100.136421 142.336zM511.973053 756.601263a368.235789 368.235789 0 0 1-82.405053-160.983579 369.933474 369.933474 0 0 0 82.432 9.242948 372.197053 372.197053 0 0 0 82.378105-9.269895 362.711579 362.711579 0 0 1-21.423158 64.970105 367.804632 367.804632 0 0 1-60.981894 96.040421zM576.835368 972.288A368.64 368.64 0 0 1 512.026947 1024a370.256842 370.256842 0 0 1-142.255158-165.322105A369.960421 369.960421 0 0 0 512 758.541474a368.990316 368.990316 0 0 0 142.336 100.163368 368.586105 368.586105 0 0 1-77.500632 113.583158zM511.973053 265.431579a369.879579 369.879579 0 0 0-142.228211-100.136421A370.256842 370.256842 0 0 1 512-0.026947a370.741895 370.741895 0 0 1 142.309053 165.295158 369.529263 369.529263 0 0 0-142.336 100.163368zM428.355368 594.458947a362.388211 362.388211 0 0 1-64.943157-21.557894 366.699789 366.699789 0 0 1-96.013474-61.008842 369.664 369.664 0 0 1 160.983579-82.458948 377.263158 377.263158 0 0 0-9.216 82.432c0.026947 27.755789 3.125895 55.403789 9.216 82.458948l-0.026948 0.134736zM594.378105 428.409263a360.690526 360.690526 0 0 0-45.136842-7.383579 376.643368 376.643368 0 0 0-119.70021 7.302737 369.744842 369.744842 0 0 1 82.432-160.956632c40.421053 45.999158 68.715789 101.322105 82.405052 161.010527v0.026947zM756.574316 511.973053a368.990316 368.990316 0 0 1-160.983579 82.405052 371.146105 371.146105 0 0 0 0-164.810105c22.285474 5.039158 44.058947 12.207158 64.970105 21.423158 34.977684 15.198316 67.368421 35.786105 96.013474 60.981895zM972.288 576.808421a366.699789 366.699789 0 0 1-113.610105 77.446737A370.364632 370.364632 0 0 0 758.514526 512a368.747789 368.747789 0 0 0 100.109474-142.309053A370.418526 370.418526 0 0 1 1024 512a367.535158 367.535158 0 0 1-51.712 64.808421z" fill="#FFFFFF" p-id="21059"></path><path d="M3318.056421 311.942737a185.936842 185.936842 0 1 1 0 371.873684 185.936842 185.936842 0 0 1 0-371.873684z m0 77.419789a108.544 108.544 0 1 0-0.053895 217.088 108.544 108.544 0 0 0 0.053895-217.088zM1980.954947 460.746105h204.234106a108.705684 108.705684 0 0 0-204.234106 0z m0 74.374737a108.705684 108.705684 0 0 0 191.326316 24.818526h86.231579a185.370947 185.370947 0 1 1 6.871579-24.818526H1980.954947zM2809.775158 460.746105h204.207158a108.678737 108.678737 0 0 0-204.207158 0z m0 74.374737a108.678737 108.678737 0 0 0 191.326316 24.818526h86.231579a185.370947 185.370947 0 1 1 6.871579-24.818526h-284.429474zM1708.624842 676.513684v-357.322105h85.746526v30.450526a88.926316 88.926316 0 0 1 72.057264-42.873263h5.093052c2.533053 0 5.066105 0.161684 7.545263 0.404211v84.075789a71.733895 71.733895 0 0 0-7.248842-0.538947h-0.242526a75.452632 75.452632 0 0 0-77.231158 75.506526v210.189474l-85.719579 0.107789zM1417.728 188.631579a247.700211 247.700211 0 0 1 225.414737 145.003789h-96.714105a164.621474 164.621474 0 1 0 16.168421 180.870737h-117.328842v-82.189473H1665.347368A247.619368 247.619368 0 1 1 1417.781895 188.631579h-0.053895zM2490.933895 311.969684a168.448 168.448 0 0 1 142.174316 76.584421 188.631579 188.631579 0 0 1 34.115368 108.867369 190.841263 190.841263 0 0 1-71.033263 147.34821 154.624 154.624 0 0 1-105.283369 39.100632 185.020632 185.020632 0 0 1-84.641684-20.345263 187.661474 187.661474 0 0 1-30.181052-19.321264 100.244211 100.244211 0 0 0-3.449264-2.694736l-3.395368-2.883369-3.368421-2.96421a197.982316 197.982316 0 0 1-6.440421-6.117053 194.128842 194.128842 0 0 1-6.090105-6.440421c-1.024-1.104842-1.967158-2.209684-2.937264-3.341474a84.48 84.48 0 0 1-2.910315-3.395368l-2.694737-3.476211a183.107368 183.107368 0 0 1-15.036632-22.204631c-0.781474-1.266526-1.482105-2.694737-2.209684-3.907369-0.727579-1.320421-1.401263-2.694737-2.101895-3.98821-0.673684-1.347368-1.374316-2.694737-1.994105-4.015158a80.491789 80.491789 0 0 1-1.913263-4.096 216.953263 216.953263 0 0 1-3.557053-8.272842c-0.538947-1.455158-1.131789-2.856421-1.616842-4.257684a99.651368 99.651368 0 0 1-4.230737-13.015579l-1.212631-4.392421a60.820211 60.820211 0 0 1-1.077895-4.500211l-0.997053-4.50021a88.171789 88.171789 0 0 1-0.862315-4.500211c-0.269474-1.536-0.538947-3.045053-0.754527-4.581053-0.242526-1.562947-0.485053-3.098947-0.673684-4.634947l-0.538947-4.661895a126.598737 126.598737 0 0 1-0.404211-4.688842c0-1.562947-0.242526-3.125895-0.323368-4.742737 0-1.589895 0-3.179789-0.161685-4.742736v-4.850527-4.742737c0-1.616842 0-3.179789 0.161685-4.769684 0-1.562947 0.215579-3.125895 0.323368-4.715789 0-1.562947 0.242526-3.125895 0.404211-4.688842l0.538947-4.688843c0.188632-1.562947 0.431158-3.072 0.673684-4.608 0.188632-1.509053 0.485053-3.045053 0.754527-4.554105 0.242526-1.536 0.538947-3.045053 0.862315-4.581052 0.296421-1.509053 0.646737-3.018105 0.997053-4.527158 0.296421-1.482105 0.727579-2.937263 1.077895-4.446316l1.212631-4.392421c0.404211-1.482105 0.835368-2.937263 1.320421-4.392421 0.431158-1.455158 0.916211-2.883368 1.401263-4.365474 0.485053-1.428211 0.970105-2.883368 1.509053-4.257684 0.538947-1.374316 1.050947-2.856421 1.616842-4.257684l1.724632-4.176842a185.936842 185.936842 0 0 1 171.331368-113.448421l-0.107789-0.754527z m-173.082948 117.786948c-0.538947 1.374316-1.077895 2.694737-1.616842 4.257684l1.616842-4.257684z m173.029053-40.421053a108.544 108.544 0 1 0 0.053895 217.088 108.544 108.544 0 0 0-0.053895-217.088z" fill="#FFFFFF" p-id="21060"></path><path d="M2688.592842 631.754105v2.048a196.096 196.096 0 0 1-377.424842 74.590316h91.378526a116.897684 116.897684 0 0 0 206.874948-74.186105V321.131789h79.171368v310.622316z" fill="#FFFFFF" p-id="21061"></path></svg>